<svg viewBox="0 0 50 50" xmlns="http://www.w3.org/2000/svg">
<path d="M50 25C50 11.1929 38.8071 0 25 0C11.1928 0 0 11.1929 0 25C0 38.8071 11.1928 50 25 50C38.8071 50 50 38.8071 50 25ZM32 38C30.5253 38 29.3333 36.8053 29.3333 35.3333C29.3333 33.8587 30.5253 32.6667 32 32.6667C33.472 32.6667 34.6667 33.8587 34.6667 35.3333C34.6667 36.8053 33.472 38 32 38ZM18.6667 38C17.1933 38 16 36.8053 16 35.3333C16 33.8587 17.1933 32.6667 18.6667 32.6667C20.1373 32.6667 21.3333 33.8587 21.3333 35.3333C21.3333 36.8053 20.1373 38 18.6667 38ZM35.4867 24.68L20.7293 28.896C19.4373 29.2653 19.4693 30 21.0027 30H36V32.0653C36 32.356 35.76 32.5987 35.4667 32.5987H17.8667C17.5733 32.5987 17.3333 32.3573 17.3333 32.0653V29.8667L17.2133 28.6093L14.6667 16.6667H12V14.5333C12 14.24 12.24 14 12.532 14H16.8013C17.092 14 17.3333 14.24 17.3333 14.5333V16.6667H36V24C36 24.2947 35.768 24.5987 35.4867 24.68Z" />
</svg>
