<svg viewBox="0 0 127 64" xmlns="http://www.w3.org/2000/svg">
<path d="M39.7573 32.1381C42.1804 32.1381 43.392 32.9091 43.392 34.4511C43.392 34.9798 43.2158 35.7067 42.8633 36.6319C39.2947 44.9587 35.9243 51.6774 32.7522 56.788C31.1662 59.2992 29.7343 61.0174 28.4567 61.9426C27.179 62.8678 25.7251 63.3304 24.095 63.3304C22.3328 63.3304 21.011 62.6475 20.1299 61.2818C19.2928 59.916 18.7641 57.6691 18.5439 54.5411C18.4557 53.3956 18.3676 51.6774 18.2795 49.3864C16.9138 53.1753 15.6581 56.0831 14.5126 58.1097C13.4112 60.0922 12.3098 61.458 11.2084 62.207C10.151 62.9559 8.87336 63.3304 7.37542 63.3304C5.56908 63.3304 4.13723 62.6255 3.07986 61.2157C2.06655 59.8059 1.42773 57.581 1.16339 54.5411C0.634703 48.3731 0.370361 42.9761 0.370361 38.3501V36.0371C0.414418 34.5392 0.788902 33.5259 1.49381 32.9972C2.19873 32.4245 3.34421 32.1381 4.93026 32.1381C6.07574 32.1381 6.91282 32.4024 7.4415 32.9311C8.01424 33.4157 8.30062 34.2528 8.30062 35.4424C8.30062 40.5089 8.60901 47.0954 9.22581 55.2019C10.6797 52.1179 12.0234 49.1661 13.257 46.3465C14.4906 43.5268 15.9225 39.9141 17.5526 35.5084C18.0372 34.1867 18.6099 33.3056 19.2708 32.865C19.9757 32.3804 20.7908 32.1381 21.716 32.1381C22.9496 32.1381 23.8748 32.4024 24.4916 32.9311C25.1083 33.4157 25.4167 34.2528 25.4167 35.4424V45.6856C25.4167 50.0913 25.4388 53.2634 25.4828 55.2019C27.5095 51.6774 29.1616 48.6154 30.4392 46.016C31.761 43.4167 33.2369 39.9141 34.867 35.5084C35.3516 34.1867 35.9904 33.3056 36.7834 32.865C37.5765 32.3804 38.5678 32.1381 39.7573 32.1381Z" />
<path d="M79.9635 48.2629C80.5362 48.2629 80.9768 48.5273 81.2852 49.056C81.6376 49.5846 81.8139 50.3116 81.8139 51.2368C81.8139 52.9991 81.3953 54.3648 80.5582 55.3341C78.5316 57.6691 76.4389 59.5856 74.2801 61.0835C72.1654 62.5815 69.7423 63.3304 67.0107 63.3304C64.7638 63.3304 63.0676 62.6916 61.9221 61.4139C60.7767 60.0922 60.2039 58.1978 60.2039 55.7306C60.2039 54.497 60.5123 52.2942 61.1291 49.1221C61.7019 46.3465 61.9882 44.43 61.9882 43.3726C61.9882 42.6677 61.7459 42.3152 61.2613 42.3152C60.6886 42.3152 59.8735 43.0642 58.8161 44.5622C57.7588 46.016 56.7014 47.9545 55.644 50.3777C54.5867 52.8008 53.7275 55.3561 53.0667 58.0436C52.2296 61.5681 50.1589 63.3304 46.8547 63.3304C45.533 63.3304 44.6518 62.8678 44.2112 61.9426C43.8147 60.9734 43.6165 59.2552 43.6165 56.788C43.6165 55.3781 43.6385 54.2547 43.6826 53.4176L43.7486 48.1308C43.7486 41.346 44.4315 34.2749 45.7973 26.9173C47.2071 19.5598 49.2558 13.3918 51.9432 8.41341C54.6748 3.39092 57.935 0.879669 61.7239 0.879669C63.7505 0.879669 65.3806 1.76081 66.6142 3.52309C67.8919 5.24131 68.5307 7.48821 68.5307 10.2638C68.5307 14.7136 67.231 19.3395 64.6316 24.1418C62.0323 28.8999 57.8028 34.4731 51.9432 40.8614C51.8111 43.1523 51.745 45.5094 51.745 47.9325C53.1989 44.1877 54.8069 41.1477 56.5692 38.8127C58.3756 36.4336 60.1378 34.7375 61.8561 33.7241C63.6183 32.7108 65.2264 32.2042 66.6803 32.2042C69.544 32.2042 70.9759 33.636 70.9759 36.4997C70.9759 38.218 70.4912 41.324 69.522 45.8178C68.6849 49.6507 68.2663 52.184 68.2663 53.4176C68.2663 55.1799 68.9052 56.061 70.1828 56.061C71.064 56.061 72.0993 55.5323 73.2888 54.475C74.5224 53.3735 76.1525 51.6113 78.1792 49.1881C78.7079 48.5713 79.3026 48.2629 79.9635 48.2629ZM60.3361 7.42213C59.5431 7.42213 58.6619 8.56761 57.6927 10.8586C56.7234 13.1055 55.7762 16.1674 54.851 20.0445C53.9699 23.8774 53.2429 28.0628 52.6702 32.6007C55.4017 29.3845 57.6486 25.882 59.4109 22.0931C61.2172 18.3042 62.1204 14.8678 62.1204 11.7838C62.1204 10.3739 61.9662 9.29455 61.6578 8.54558C61.3494 7.79661 60.9088 7.42213 60.3361 7.42213Z"/>
<path d="M105.032 48.2629C105.605 48.2629 106.045 48.5273 106.354 49.056C106.706 49.5846 106.882 50.3116 106.882 51.2368C106.882 52.9991 106.464 54.3648 105.627 55.3341C103.997 57.3166 101.684 59.145 98.6878 60.8192C95.7359 62.4933 92.5638 63.3304 89.1714 63.3304C84.5455 63.3304 80.9548 62.0748 78.3995 59.5636C75.8442 57.0523 74.5666 53.6159 74.5666 49.2542C74.5666 46.2143 75.2054 43.3946 76.483 40.7953C77.7607 38.1519 79.523 36.0592 81.7699 34.5172C84.0608 32.9752 86.6382 32.2042 89.5019 32.2042C92.0572 32.2042 94.1058 32.9752 95.6478 34.5172C97.1898 36.0151 97.9608 38.0638 97.9608 40.6631C97.9608 43.703 96.8594 46.3244 94.6565 48.5273C92.4977 50.6861 88.819 52.4043 83.6203 53.6819C84.7217 55.7086 86.8144 56.7219 89.8984 56.7219C91.881 56.7219 94.1279 56.039 96.6391 54.6732C99.1944 53.2634 101.397 51.435 103.248 49.1881C103.776 48.5713 104.371 48.2629 105.032 48.2629ZM88.3784 38.6805C86.7483 38.6805 85.3605 39.6278 84.215 41.5222C83.1136 43.4167 82.5629 45.7076 82.5629 48.3951V48.5273C85.1623 47.9105 87.2109 46.9853 88.7089 45.7517C90.2068 44.5181 90.9558 43.0862 90.9558 41.4561C90.9558 40.6191 90.7134 39.9582 90.2288 39.4736C89.7883 38.9449 89.1715 38.6805 88.3784 38.6805Z" />
<path d="M124.26 50.2455C124.833 50.2455 125.273 50.5098 125.582 51.0385C125.934 51.5672 126.111 52.2942 126.111 53.2193C126.111 54.8054 125.736 56.1712 124.987 57.3166C123.753 59.2111 122.123 60.687 120.097 61.7444C118.114 62.8017 115.735 63.3304 112.96 63.3304C108.73 63.3304 105.448 62.0748 103.113 59.5636C100.778 57.0082 99.6103 53.5718 99.6103 49.2542C99.6103 46.2143 100.249 43.3946 101.527 40.7953C102.804 38.1519 104.567 36.0592 106.814 34.5172C109.105 32.9752 111.682 32.2042 114.546 32.2042C117.101 32.2042 119.15 32.9752 120.692 34.5172C122.234 36.0151 123.005 38.0638 123.005 40.6631C123.005 43.703 121.903 46.3244 119.7 48.5273C117.541 50.6861 113.841 52.4043 108.598 53.6819C109.655 55.7086 111.44 56.7219 113.951 56.7219C115.757 56.7219 117.233 56.3033 118.379 55.4663C119.568 54.6292 120.934 53.2193 122.476 51.2368C123.005 50.5759 123.599 50.2455 124.26 50.2455ZM113.422 38.6805C111.792 38.6805 110.404 39.6278 109.259 41.5222C108.157 43.4167 107.607 45.7076 107.607 48.3951V48.5273C110.206 47.9105 112.255 46.9853 113.753 45.7517C115.25 44.5181 115.999 43.0862 115.999 41.4561C115.999 40.6191 115.757 39.9582 115.273 39.4736C114.832 38.9449 114.215 38.6805 113.422 38.6805Z" />
</svg>
